<svg width="50" height="50" viewBox="0 0 50 50" fill="none" xmlns="http://www.w3.org/2000/svg">
<circle cx="25" cy="25" r="25" fill="#131E3A"/>
<path d="M19.24 23.264C20.216 23.536 20.968 24.032 21.496 24.752C22.04 25.472 22.312 26.352 22.312 27.392C22.312 28.832 21.792 29.96 20.752 30.776C19.728 31.592 18.312 32 16.504 32H10.312C9.848 32 9.48 31.872 9.208 31.616C8.952 31.36 8.824 31 8.824 30.536V16.544C8.824 16.08 8.952 15.72 9.208 15.464C9.48 15.208 9.848 15.08 10.312 15.08H16.264C18.024 15.08 19.4 15.472 20.392 16.256C21.4 17.024 21.904 18.104 21.904 19.496C21.904 20.392 21.664 21.168 21.184 21.824C20.72 22.48 20.072 22.96 19.24 23.264ZM11.848 22.208H15.76C17.888 22.208 18.952 21.416 18.952 19.832C18.952 19.032 18.688 18.44 18.16 18.056C17.632 17.672 16.832 17.48 15.76 17.48H11.848V22.208ZM16.168 29.6C17.288 29.6 18.104 29.4 18.616 29C19.128 28.6 19.384 27.976 19.384 27.128C19.384 26.28 19.12 25.648 18.592 25.232C18.08 24.816 17.272 24.608 16.168 24.608H11.848V29.6H16.168Z" fill="white"/>
<path d="M40.5428 30.152C40.6388 30.36 40.6868 30.568 40.6868 30.776C40.6868 31.144 40.5348 31.456 40.2308 31.712C39.9428 31.968 39.6068 32.096 39.2228 32.096C38.9668 32.096 38.7268 32.032 38.5028 31.904C38.2788 31.76 38.1028 31.544 37.9748 31.256L36.5348 28.04H28.0868L26.6468 31.256C26.5188 31.544 26.3428 31.76 26.1188 31.904C25.8948 32.032 25.6468 32.096 25.3748 32.096C25.0068 32.096 24.6708 31.968 24.3668 31.712C24.0628 31.456 23.9108 31.144 23.9108 30.776C23.9108 30.568 23.9588 30.36 24.0548 30.152L30.6788 15.92C30.8228 15.6 31.0388 15.36 31.3268 15.2C31.6308 15.024 31.9508 14.936 32.2868 14.936C32.6228 14.936 32.9348 15.024 33.2228 15.2C33.5268 15.36 33.7508 15.6 33.8948 15.92L40.5428 30.152ZM29.1428 25.64H35.4788L32.3108 18.512L29.1428 25.64Z" fill="#FB6739"/>
</svg>
